<!DOCTYPE svg PUBLIC "-//W3C//DTD SVG 20010904//EN" "http://www.w3.org/TR/2001/REC-SVG-20010904/DTD/svg10.dtd">
<svg version="1.0" xmlns="http://www.w3.org/2000/svg" width="695px" height="207px" viewBox="0 0 6950 2070" preserveAspectRatio="xMidYMid meet">
<g id="layer101" fill="#000000" stroke="none">
 <path d="M4158 2008 c-1 -35 -2 -79 -2 -100 -1 -20 -4 -40 -8 -44 -4 -4 -3 -13 3 -20 7 -9 7 -25 -1 -53 -6 -23 -8 -57 -4 -77 6 -30 4 -36 -15 -41 -19 -5 -21 -12 -22 -92 -1 -108 -8 -135 -37 -139 -46 -7 -63 -111 -63 -373 0 -79 -2 -154 -5 -166 -11 -44 -41 -21 -60 47 -4 14 -19 41 -34 60 -40 52 -65 117 -52 132 10 13 16 48 14 80 -1 10 -12 18 -29 20 -24 3 -31 11 -45 53 -20 61 -23 132 -5 138 10 4 10 7 0 18 -7 7 -13 20 -13 29 0 9 -9 25 -19 34 -25 23 -77 14 -84 -15 -3 -11 -19 -25 -36 -32 -27 -10 -31 -16 -31 -49 0 -20 7 -63 15 -95 8 -31 15 -62 15 -68 0 -5 -18 -29 -40 -53 -22 -23 -40 -47 -40 -52 0 -21 -16 -8 -48 38 l-32 48 11 125 c12 140 5 171 -47 206 -23 15 -26 21 -20 59 3 24 2 45 -3 48 -4 3 -6 52 -5 109 4 100 3 105 -21 127 -32 30 -39 22 -55 -60 -26 -136 -31 -203 -39 -485 -5 -159 -12 -305 -16 -322 -4 -21 -3 -33 3 -33 5 0 12 -19 15 -42 3 -24 10 -61 17 -83 27 -93 32 -153 15 -188 -9 -17 -20 -65 -25 -104 -5 -40 -19 -101 -30 -135 -11 -34 -20 -67 -20 -74 0 -7 -16 -29 -35 -50 -50 -52 -45 -64 25 -68 47 -2 56 -9 35 -26 -17 -14 -21 -65 -4 -55 6 4 16 -1 24 -11 13 -18 15 -18 43 9 16 16 47 35 68 42 21 7 43 21 49 31 15 27 47 58 78 78 21 13 26 22 22 37 -5 14 0 28 12 42 29 32 63 104 63 132 0 13 13 48 30 78 16 29 32 73 36 96 4 23 11 44 15 47 5 3 9 15 9 26 0 33 23 88 36 88 6 0 24 -24 38 -52 15 -29 31 -60 36 -68 11 -20 36 -79 45 -108 4 -13 24 -59 46 -103 21 -43 39 -84 39 -91 0 -6 8 -20 17 -30 12 -14 20 -52 28 -132 9 -81 18 -126 35 -160 21 -40 22 -49 10 -56 -12 -7 -12 -12 -2 -22 6 -6 12 -20 12 -30 0 -24 32 -23 53 0 10 10 17 26 17 35 0 19 31 23 58 6 12 -7 25 -7 43 0 23 8 28 18 34 63 4 29 11 61 16 70 5 9 14 74 19 145 6 70 16 166 22 213 13 108 13 541 -1 730 -6 80 -13 256 -17 391 -6 237 -7 246 -28 255 -17 7 -22 19 -24 65 -3 61 -11 69 -74 69 -27 0 -28 -1 -30 -62z"/>
 <path d="M5070 2054 c-9 -3 -28 -25 -43 -50 -15 -24 -35 -47 -44 -50 -30 -10 -154 -73 -214 -109 -36 -20 -66 -31 -80 -28 -40 7 -153 -97 -203 -188 -10 -19 -29 -45 -41 -59 -13 -14 -26 -41 -30 -60 -4 -19 -14 -48 -23 -65 -12 -24 -15 -64 -13 -210 1 -99 6 -195 12 -214 6 -18 9 -53 6 -76 -4 -29 -2 -48 8 -61 8 -10 15 -40 15 -66 0 -37 5 -52 24 -70 14 -13 30 -36 36 -52 9 -25 8 -32 -10 -51 -29 -31 -25 -41 25 -71 25 -14 45 -31 45 -38 0 -16 132 -121 180 -143 8 -3 29 -17 46 -30 17 -13 36 -23 42 -23 7 0 24 -14 39 -30 14 -17 34 -30 42 -30 9 0 32 -11 52 -24 24 -17 40 -21 50 -15 8 5 46 9 84 9 39 0 76 5 82 11 6 6 43 12 82 15 44 3 84 12 104 23 32 19 87 47 120 63 9 4 25 12 35 17 38 21 86 41 96 41 6 0 28 11 48 25 36 25 98 34 98 15 0 -5 7 -7 15 -4 8 4 15 16 15 29 0 24 37 55 65 55 12 0 15 9 13 33 -1 20 7 49 20 71 26 44 26 46 8 46 -9 0 -17 15 -21 38 -6 38 -4 57 14 142 21 93 24 105 31 115 14 19 22 110 22 238 -1 125 -2 130 -31 175 -40 65 -91 175 -91 199 0 11 10 27 23 36 18 12 20 19 11 34 -11 18 -111 91 -127 92 -4 1 -69 31 -143 67 -108 53 -133 70 -129 84 3 10 -7 30 -30 53 -29 30 -43 36 -92 41 -32 4 -78 11 -103 17 -25 6 -51 12 -58 13 -7 1 -18 8 -24 14 -12 12 -29 13 -58 6z m334 -282 c31 -18 63 -32 69 -32 7 0 41 -22 76 -50 35 -27 66 -50 70 -52 12 -6 97 -172 137 -268 20 -49 31 -61 49 -54 16 6 29 -12 45 -63 16 -51 10 -69 -26 -76 -37 -7 -76 14 -94 50 -8 15 -17 30 -20 33 -3 3 -13 21 -23 40 -23 46 -37 69 -64 107 -13 17 -23 35 -23 40 0 5 -10 19 -23 31 -18 17 -26 19 -35 10 -7 -7 -12 -17 -12 -24 0 -6 -6 -14 -14 -17 -8 -3 -33 -38 -56 -77 -46 -79 -75 -100 -115 -82 -21 10 -31 8 -60 -8 -19 -11 -59 -24 -88 -29 -135 -25 -215 -45 -250 -62 -22 -11 -43 -16 -49 -13 -5 3 -21 31 -35 62 -33 75 -57 125 -93 192 -16 30 -30 63 -30 73 0 30 -25 13 -28 -19 -2 -16 -18 -43 -38 -62 -19 -18 -34 -39 -34 -47 0 -12 -43 -99 -56 -114 -2 -2 -19 4 -38 13 -19 9 -41 16 -49 16 -49 0 -40 79 16 146 19 21 42 54 51 73 10 18 26 36 37 38 10 3 19 9 19 13 0 4 35 25 78 46 42 21 101 53 131 72 62 39 94 52 136 58 17 2 39 8 50 13 39 18 119 41 145 41 15 0 30 3 34 8 4 4 22 12 39 18 39 14 88 1 171 -44z m-624 -426 c5 -15 10 -40 10 -56 0 -16 5 -32 10 -35 6 -3 10 -15 10 -27 0 -17 -4 -19 -27 -13 -16 3 -42 9 -60 12 -51 8 -60 27 -35 72 12 21 22 46 22 54 0 9 5 28 10 42 l10 27 20 -25 c11 -13 24 -37 30 -51z m857 -65 c32 -62 36 -88 11 -63 -7 7 -19 12 -28 12 -23 0 -80 30 -86 44 -3 7 2 26 11 42 8 16 15 36 15 45 0 49 25 23 77 -80z m-233 -58 c3 -4 25 -7 49 -8 23 -1 62 -12 87 -25 40 -20 90 -31 220 -46 61 -7 89 -22 83 -44 -3 -10 0 -27 6 -37 6 -13 7 -23 1 -29 -5 -5 -12 -32 -14 -59 -7 -75 -31 -182 -46 -199 -7 -9 -19 -16 -26 -16 -8 0 -14 -10 -14 -24 0 -13 -8 -34 -19 -47 -10 -13 -16 -30 -13 -37 7 -21 -28 -51 -103 -88 -38 -20 -88 -48 -110 -64 -22 -16 -65 -36 -95 -46 -30 -10 -59 -22 -64 -26 -6 -4 -24 -8 -41 -8 -17 0 -35 -4 -41 -9 -5 -5 -28 -11 -51 -14 -37 -4 -43 -3 -43 14 0 22 -13 25 -29 5 -15 -17 -131 -28 -149 -13 -7 6 -35 22 -62 36 -72 39 -182 115 -211 147 -14 16 -38 39 -52 52 -15 14 -27 36 -29 55 -2 25 -7 31 -21 29 -26 -4 -59 42 -80 113 -11 33 -23 64 -28 69 -5 6 -9 26 -9 46 0 19 -4 49 -9 66 -5 17 -12 63 -16 103 l-7 72 103 -5 c103 -4 193 -20 216 -39 7 -5 44 -9 83 -9 38 1 72 -3 75 -9 4 -5 15 -9 25 -9 17 0 102 -92 113 -122 3 -10 9 -9 24 5 11 9 29 17 42 17 14 0 29 12 42 35 12 19 24 35 28 35 4 0 19 16 32 34 48 67 131 121 153 99z m-179 -22 c3 -6 -3 -18 -13 -28 -10 -10 -30 -35 -46 -56 -41 -56 -52 -56 -103 -2 -42 45 -44 50 -27 62 10 7 32 13 50 13 18 0 36 5 39 10 8 13 92 13 100 1z"/>
 <path d="M5471 1086 c-8 -9 -19 -16 -25 -16 -7 0 -25 -13 -41 -30 -25 -26 -27 -34 -21 -77 3 -26 10 -50 14 -54 9 -9 245 -19 287 -12 27 4 32 10 42 51 12 52 8 72 -13 72 -8 0 -14 9 -14 19 0 24 -19 31 -79 31 -26 0 -51 4 -56 9 -6 5 -26 12 -46 16 -26 5 -39 2 -48 -9z"/>
 <path d="M4638 1049 c-41 -21 -56 -61 -50 -129 3 -25 79 -40 197 -39 136 1 145 3 145 38 0 15 5 32 12 39 15 15 -8 88 -31 98 -9 4 -65 8 -126 10 -93 2 -116 0 -147 -17z"/>
 <path d="M274 1995 c-4 -8 -14 -15 -24 -15 -10 0 -20 -5 -22 -12 -2 -6 -22 -13 -44 -14 -21 -1 -42 -3 -45 -3 -4 -1 -9 -16 -12 -33 -3 -18 -10 -62 -16 -98 -5 -36 -12 -175 -15 -310 -3 -135 -10 -265 -16 -289 -6 -24 -13 -64 -16 -90 -2 -25 -9 -75 -15 -111 -5 -36 -12 -94 -15 -130 -3 -36 -9 -69 -15 -75 -5 -5 -9 -26 -9 -47 0 -37 1 -38 34 -38 25 0 38 6 50 25 9 13 16 30 16 36 0 16 48 79 61 79 5 0 9 -34 9 -75 0 -94 -19 -140 -55 -131 -14 4 -27 0 -35 -9 -7 -8 -21 -15 -32 -15 -14 0 -18 -5 -14 -16 3 -9 6 -19 6 -24 0 -4 12 -10 28 -13 60 -12 131 -32 138 -39 4 -4 13 -3 21 4 10 8 17 8 25 0 7 -7 20 -12 31 -12 19 0 35 -13 53 -45 7 -13 25 -22 50 -25 l39 -5 6 -67 c3 -38 8 -70 11 -73 3 -3 21 3 39 13 29 16 34 25 35 58 1 21 2 50 3 64 2 44 29 52 118 34 43 -8 106 -19 139 -23 75 -10 84 -15 84 -50 0 -78 98 -64 165 23 15 20 31 36 35 36 4 0 5 -21 2 -46 -5 -44 -4 -46 17 -39 23 7 30 -12 10 -32 -16 -16 -4 -30 32 -38 26 -6 34 -2 64 32 19 21 34 42 35 46 1 20 36 84 57 104 13 12 23 27 23 33 0 5 5 20 12 33 24 46 28 57 28 71 0 7 7 19 15 26 8 7 15 23 15 36 0 13 4 24 9 24 5 0 11 8 15 18 3 9 10 24 15 32 5 8 26 50 47 92 21 43 48 88 61 100 13 12 23 27 23 34 0 7 23 47 52 89 61 91 59 112 -12 107 l-43 -4 6 39 c4 21 9 50 13 66 5 20 3 27 -8 27 -22 0 -41 99 -43 225 -1 61 -5 118 -9 127 -6 13 -1 21 18 29 47 22 27 98 -26 99 -12 0 -18 8 -18 25 0 14 -6 26 -12 26 -7 1 -106 0 -221 -1 -125 -1 -212 2 -220 8 -6 5 -68 12 -137 15 -144 5 -177 -4 -199 -55 -23 -52 -36 -59 -116 -65 -75 -6 -76 -6 -107 26 -29 29 -38 32 -113 35 -41 2 -45 13 -39 102 6 81 5 84 -15 84 -12 0 -24 -7 -27 -15z m1078 -442 c10 -9 20 -32 24 -52 3 -20 9 -45 14 -56 5 -11 11 -40 15 -65 4 -25 9 -60 12 -78 4 -22 -1 -41 -13 -60 -25 -36 -42 -64 -50 -82 -4 -8 -16 -22 -26 -31 -10 -9 -18 -19 -18 -22 0 -11 -84 -132 -98 -140 -7 -4 -18 -23 -26 -41 -7 -18 -28 -48 -45 -68 -17 -20 -31 -39 -31 -42 0 -4 -19 -35 -43 -69 -23 -34 -48 -73 -55 -87 -23 -46 -40 -50 -153 -39 -57 6 -153 13 -214 16 -60 3 -116 9 -122 15 -7 6 -13 28 -13 49 0 21 -4 41 -10 44 -5 3 -10 28 -10 56 0 27 -4 49 -9 49 -5 0 -9 19 -9 43 0 23 -1 174 -3 336 l-2 295 24 19 c19 15 33 17 79 12 51 -5 283 -8 518 -6 86 1 102 3 102 17 0 14 10 15 73 9 41 -4 79 -14 89 -22z m-497 -974 c5 -5 26 -9 47 -9 43 0 47 -9 18 -35 -20 -18 -28 -18 -155 6 -27 5 -75 13 -107 18 -67 10 -86 20 -67 32 18 11 251 0 264 -12z"/>
 <path d="M1805 1932 c-3 -3 -20 -8 -38 -9 -119 -12 -127 -14 -127 -38 0 -15 8 -25 23 -29 12 -4 39 -28 60 -54 37 -46 38 -48 32 -107 -16 -135 -15 -528 0 -626 19 -123 19 -182 -1 -220 -15 -30 -12 -94 7 -145 11 -30 -7 -44 -57 -44 -24 0 -46 -4 -49 -10 -9 -15 -42 -12 -69 6 -28 17 -46 3 -26 -21 7 -8 10 -24 7 -35 -6 -24 52 -94 97 -115 40 -19 138 -45 148 -39 4 3 18 -2 30 -10 29 -19 89 -25 95 -9 2 6 -5 14 -16 18 -12 3 -21 13 -21 20 0 15 19 14 95 -4 17 -4 37 -6 45 -6 49 5 51 8 15 16 -84 17 -175 44 -187 56 -10 10 -2 13 39 13 29 0 55 -4 58 -10 3 -5 24 -10 46 -10 57 0 52 26 -7 41 -44 11 -71 38 -45 47 15 5 -5 32 -24 32 -29 0 -35 26 -25 106 20 143 31 268 30 324 0 30 -2 146 -5 257 -3 166 -1 204 11 214 8 6 14 22 14 35 0 22 4 24 45 24 25 0 45 5 45 10 0 6 -4 10 -8 10 -4 0 -13 15 -20 33 -11 29 -10 34 8 49 23 19 24 25 8 78 -8 25 -22 43 -38 51 -14 6 -33 15 -42 20 -10 5 -24 9 -31 9 -26 0 -80 33 -84 51 -5 19 -27 32 -38 21z"/>
 <path d="M6046 1902 c-3 -5 -8 -40 -12 -78 -5 -50 -12 -73 -26 -84 -41 -33 -47 -102 -49 -511 -1 -295 2 -391 11 -410 7 -13 14 -64 16 -114 2 -78 -1 -96 -21 -135 -13 -25 -26 -69 -29 -99 l-5 -54 40 6 c50 7 92 -28 58 -48 -6 -4 -8 -13 -5 -20 2 -7 0 -17 -5 -22 -14 -14 9 -31 46 -35 26 -3 31 1 41 32 9 27 18 36 38 38 20 3 30 13 42 42 10 25 24 40 40 44 23 6 24 10 24 83 0 41 -5 105 -12 140 -9 51 -9 74 2 116 7 29 16 54 19 57 3 3 11 14 17 25 6 11 25 28 43 37 42 21 81 57 81 75 0 7 5 13 10 13 6 0 10 5 10 11 0 10 48 111 86 182 34 62 51 25 53 -116 1 -65 5 -126 11 -136 6 -12 5 -22 -2 -29 -8 -8 -8 -15 0 -25 7 -8 9 -35 6 -70 -5 -55 23 -206 47 -249 5 -10 9 -52 9 -94 0 -72 2 -77 32 -107 37 -36 37 -38 44 -132 6 -69 22 -125 36 -125 12 0 10 88 -2 110 -8 16 -5 22 20 37 16 9 30 23 30 31 0 7 7 20 15 28 12 12 15 42 15 133 l0 118 24 -4 c31 -6 85 22 95 50 10 25 3 85 -10 93 -5 3 -9 24 -9 47 -1 40 -18 77 -36 77 -5 0 -9 33 -10 74 0 41 -5 91 -11 113 -7 21 -21 72 -33 113 -12 41 -25 85 -31 98 -5 12 -12 48 -15 80 -3 31 -9 66 -14 77 -34 81 -54 248 -35 285 8 14 21 41 30 60 9 19 24 44 34 55 10 11 24 30 30 42 10 20 8 26 -21 53 -34 31 -78 40 -78 16 0 -29 -26 -37 -59 -19 l-32 18 -37 -44 c-20 -25 -42 -54 -47 -65 -8 -15 -18 -20 -38 -18 -23 3 -27 0 -27 -20 0 -21 -18 -77 -69 -207 -11 -30 -32 -66 -46 -81 -14 -14 -25 -31 -25 -37 0 -6 -14 -38 -31 -70 -41 -78 -44 -84 -57 -110 -7 -13 -12 -28 -12 -34 0 -7 -11 -27 -25 -45 -14 -18 -25 -37 -25 -42 0 -5 -6 -15 -14 -21 -11 -9 -15 -2 -20 37 -8 61 -9 520 -1 533 10 16 -5 47 -25 52 -13 3 -18 11 -14 20 3 8 1 18 -5 21 -6 4 -8 27 -4 58 5 45 4 52 -18 69 -26 20 -45 24 -53 11z"/>
 <path d="M2806 1746 c-48 -15 -66 -39 -66 -88 0 -30 7 -45 33 -68 17 -17 49 -38 70 -47 34 -14 36 -17 24 -32 -23 -26 -29 -58 -17 -93 5 -18 15 -132 20 -253 6 -121 13 -252 16 -292 l6 -72 -29 -6 c-63 -15 -79 -23 -92 -49 -7 -16 -22 -31 -32 -33 -22 -6 -25 -31 -6 -57 20 -27 172 -38 257 -19 36 8 83 18 105 22 102 20 118 59 57 139 -21 27 -24 39 -18 75 4 23 13 94 21 157 8 63 19 138 25 165 6 28 15 122 19 209 7 137 11 161 27 173 10 7 26 13 36 13 12 0 18 7 18 23 0 28 -29 57 -57 57 -11 0 -28 10 -39 21 -25 28 -55 39 -77 27 -12 -6 -36 -4 -75 8 -31 9 -77 18 -102 19 -25 1 -54 4 -65 8 -11 3 -37 0 -59 -7z"/>
 <path d="M2524 1505 c-26 -26 -44 -32 -44 -15 0 6 -13 10 -29 10 -17 0 -33 -4 -36 -10 -3 -5 -20 -10 -37 -10 -17 0 -51 -11 -75 -25 -33 -20 -55 -25 -92 -24 -61 3 -75 -8 -109 -83 -18 -42 -32 -60 -50 -65 -32 -8 -42 9 -42 76 0 43 -3 51 -13 43 -14 -12 -15 -73 -2 -212 5 -55 3 -91 -9 -135 -9 -32 -16 -74 -16 -92 0 -29 5 -35 38 -49 29 -13 42 -27 59 -68 12 -28 25 -69 28 -91 9 -51 29 -96 54 -119 10 -10 25 -38 33 -63 14 -50 51 -83 90 -83 14 0 33 -9 43 -20 10 -11 36 -23 57 -26 21 -4 38 -10 38 -14 0 -4 11 -12 25 -18 20 -9 30 -9 45 0 15 10 24 9 46 -2 15 -8 47 -15 71 -15 39 0 48 5 76 39 25 29 38 37 52 33 24 -8 39 1 48 27 9 23 -9 46 -37 46 -27 1 -63 29 -68 54 -3 17 -12 20 -63 21 -55 0 -137 13 -226 36 -22 5 -40 18 -46 32 -11 23 -50 180 -52 207 -1 8 -3 43 -5 78 -2 34 -5 65 -8 68 -11 10 -25 -133 -18 -183 7 -58 3 -61 -43 -36 -40 22 -43 27 -63 90 -16 52 -16 53 10 107 15 30 37 85 50 123 22 64 27 70 78 98 121 67 153 100 108 112 -17 5 -17 7 -5 20 8 8 27 13 42 11 27 -3 28 -5 30 -68 1 -36 -1 -103 -5 -150 l-7 -85 -30 2 c-62 3 -75 -4 -75 -45 0 -45 14 -62 51 -62 15 0 30 -4 34 -9 3 -5 29 -17 58 -26 28 -9 61 -20 72 -24 11 -5 33 -14 48 -20 15 -6 60 -11 99 -11 63 0 73 3 94 26 31 32 18 64 -25 64 -42 0 -52 19 -46 86 2 32 5 68 5 78 1 11 5 27 10 35 4 9 10 85 11 168 3 137 2 154 -15 172 -11 12 -24 21 -31 21 -15 0 -55 -34 -55 -47 0 -6 -6 -16 -14 -22 -22 -18 -56 7 -56 41 0 36 -22 37 -56 3z"/>
 </g>

</svg>